<?xml version="1.0" ?><svg id="Layer_1" style="enable-background:new 0 0 70 70;" version="1.1" viewBox="0 0 70 70" xml:space="preserve" xmlns="http://www.w3.org/2000/svg" xmlns:xlink="http://www.w3.org/1999/xlink"><style type="text/css">
	.st0{fill:#D7D2D1;}
	.st1{fill:#5EA3D7;}
</style><g><path class="st1" d="M9.5493908,38.1195717l-4.6099854,1.3499756c-0.0900269,0.0300293-0.1900024,0.0400391-0.2800293,0.0400391   c-0.3999634,0-0.7799685-0.2400513-0.9299929-0.6300049L2.0694101,34.689579   c-0.2000121-0.5100098,0.039978-1.0800171,0.539978-1.2900391l4.3099976-1.8299541   C7.4893932,32.729557,8.6693859,35.7595863,9.5493908,38.1195717z"/><path class="st0" d="M30.3394299,31.7095394l-2.9300537-8.6799927c-0.0099487-0.0599976-0.0199585-0.1199951-0.0299683-0.1799927   L8.7594128,30.7795467c0.75,1.5800152,2.0999756,5.1199932,2.7199707,6.7800274l18.9900513-5.5499878   C30.4193859,31.9095516,30.3693981,31.809576,30.3394299,31.7095394z"/><path class="st1" d="M54.4994011,64.2095413c-0.1599731,0.0900269-0.3300171,0.1300049-0.5,0.1300049   c-0.3400269,0-0.6799927-0.1799927-0.8699951-0.5000038L36.4594231,34.4195595l0.1599731,24.0300293   c0,0.5499878-0.4400024,1-1,1.0099487c-0.5499878,0-1-0.4499512-1-1l-0.1599731-23.4400024l-13.4299908,28.75   c-0.1700439,0.3600502-0.5300293,0.5700111-0.9000244,0.5700111c-0.1500244,0-0.289978-0.0299683-0.4299927-0.0899658   c-0.5-0.2300415-0.710022-0.8300209-0.4799805-1.3300209l14.6399517-31.3400249l-0.3999634,0.1200562   c-0.0900269,0.0299683-0.1900024,0.039978-0.2800293,0.039978c-0.4199829,0-0.8099976-0.2700195-0.9500122-0.6799927   l-2.919981-8.6699829c-0.1599731-0.4900513,0.0800171-1.0400391,0.5599976-1.2400513l12.5800152-5.3499756l4.7299805,11.8800049   l-10.5,3.0800171l18.1900024,32.0899658C55.1494255,63.3295326,54.9793816,63.939579,54.4994011,64.2095413z"/><path class="st0" d="M52.5074577,8.9007015l-8.2680664,3.2888794c-0.25,0.0999756-0.4400024,0.289978-0.5499878,0.539978   c-0.0999756,0.2399902-0.1099854,0.5100098-0.0100098,0.7600098l6.1500244,15.4299927   c0.1599731,0.3900146,0.5299683,0.6300049,0.9299927,0.6300049c0.1199951,0,0.25-0.0200195,0.3699951-0.0700073   l7.8950195-3.1405029c-0.0098267-0.0438232-0.0321655-0.0820312-0.0361328-0.1280518   C58.4480095,19.9931087,52.9231071,9.6696835,52.5074577,8.9007015z"/><path class="st1" d="M67.9893951,21.9295712c0.0700073,0.460022-0.1799927,0.9199829-0.6199951,1.0899658l-6.4400063,2.5599976   c-0.7399902-6.3499756-5.6400146-15.7199707-6.5499878-17.4199829l6.0999756-2.4299932   c0.4400024-0.1699829,0.9400024-0.0200195,1.210022,0.3800049C64.9694366,11.0895443,67.0894318,16.4095516,67.9893951,21.9295712z   "/></g></svg>