<?xml version="1.0" ?><svg viewBox="0 0 128 128" xmlns="http://www.w3.org/2000/svg"><defs><style>.cls-1{fill:#4d4d4d;}.cls-2{fill:#666;}.cls-3{fill:#333;}.cls-4{fill:#1f1f1f;}.cls-5{fill:gray;}.cls-6{fill:#e6e6e6;}.cls-7{fill:#f2f2f2;}.cls-8{fill:#ccc;}.cls-9{fill:#b3b3b3;}.cls-10{fill:#999;}</style></defs><title/><g data-name="33 Telescope" id="_33_Telescope"><path class="cls-1" d="M93.5,113.66,64,69.41,34.5,113.66c-2.2,3.3-7.19,0-5-3.33l32-48a3,3,0,0,1,5,0l32,48C100.69,113.63,95.71,117,93.5,113.66Z"/><path class="cls-2" d="M64,61a3,3,0,0,0-2.5,1.34C27,114.1,28.77,110.8,29,112.49c.17-1-1.63,2,32.46-49.15a3,3,0,0,1,5,0v-1A3,3,0,0,0,64,61Z"/><path class="cls-3" d="M98.5,110.34l-32-48A3,3,0,0,0,64,61a2.57,2.57,0,0,0-.56.07,3,3,0,0,0-1.93,1.27L56,70.56A4,4,0,0,0,57.2,73.2a2.27,2.27,0,0,1,.39,2.89C30.41,116.86,32.4,114.35,31,114.82a3,3,0,0,0,3.48-1.16L64,69.41l3.3,5A4.53,4.53,0,0,0,70,73.84a2.48,2.48,0,0,1,3.25.74Z"/><rect class="cls-3" height="20" rx="4" ry="4" width="16" x="56" y="53.11"/><path class="cls-1" d="M56.71,69.11v-12a4,4,0,0,1,4-4H60a4,4,0,0,0-4,4v12a4,4,0,0,0,4,4h.71A4,4,0,0,1,56.71,69.11Z"/><path class="cls-4" d="M68,53.11c-8.19,0-8.11-.09-9,.14-.75,1.27-.57,1.28-.57,11.1l.5.87a4,4,0,0,0,5.46,1.46l2.3-1.33a2,2,0,0,1,2.95,1.7v2.06a4,4,0,0,1-4,4H68a4,4,0,0,0,4-4v-12A4,4,0,0,0,68,53.11Z"/><rect class="cls-2" height="12.78" transform="translate(-26.01 29.14) rotate(-30)" width="29.13" x="26.81" y="56.72"/><polygon class="cls-5" points="50.8 51.18 56.8 61.59 57.19 61.36 50.8 50.29 25.57 64.86 25.95 65.53 50.8 51.18"/><path class="cls-1" d="M50.8,50.29l-.63.36,5,8.71-2.45,1.42h0l-4.64-8L51.4,60a1.51,1.51,0,0,1-.62,1.94L37.95,69.33a2.65,2.65,0,0,1-3.49-.77l-4-5.65L35.09,71h0l-4.5,2.6L32,75.93,57.19,61.36Z"/><path class="cls-6" d="M51.48,32H98.61a0,0,0,0,1,0,0V57.61a0,0,0,0,1,0,0H51.48a4,4,0,0,1-4-4V36A4,4,0,0,1,51.48,32Z" transform="translate(-12.63 42.53) rotate(-30)"/><path class="cls-7" d="M48.67,46,89.49,22.46l12,20.73.12-.07L88.79,21,48,44.54A4,4,0,0,0,46.51,50l.31.54A4,4,0,0,1,48.67,46Z"/><path class="cls-8" d="M100.16,40.7l-6,3.44L83.63,25.84l7.82,17.31a2.48,2.48,0,0,1-1,3.17L59.34,64.26A4,4,0,0,1,54,63l1.31,2.27a4,4,0,0,0,5.46,1.46l40.82-23.57Z"/><rect class="cls-9" height="31.96" rx="2" ry="2" transform="translate(-3.46 51.7) rotate(-30)" width="12.78" x="88.35" y="16.32"/><path class="cls-8" d="M107.27,41.21l-13-22.55Z"/><path class="cls-8" d="M83,24.69A2,2,0,0,1,83.7,22l7.61-4.39A2,2,0,0,1,94,18.3c-2.18-3.78-2-2.88-11.09,2.36a2,2,0,0,0-.73,2.73l1,1.66Z"/><path class="cls-10" d="M107.27,41.21,100,28.56,106.1,39.2a2,2,0,0,1-.73,2.73l-7.61,4.39A2,2,0,0,1,95,45.59c2.6,4.51,1.75,4,11.5-1.65A2,2,0,0,0,107.27,41.21Z"/><rect class="cls-9" height="19.17" rx="2" ry="2" transform="translate(-30.61 24.54) rotate(-30)" width="6.39" x="27.3" y="59.81"/><path class="cls-8" d="M24.35,65.14a2,2,0,0,1,.73-2.73l2.07-1.2a2,2,0,0,1,2.73.73l-.42-.72a2,2,0,0,0-2.73-.73C24.1,62,22.76,62.39,24.35,65.14Z"/><path class="cls-10" d="M37.05,74.37l-.91-1.58a2,2,0,0,1-.73,2.73l-2.07,1.2A2,2,0,0,1,30.61,76l.91,1.58a2,2,0,0,0,2.73.73l2.07-1.2A2,2,0,0,0,37.05,74.37Z"/></g></svg>